<?xml version="1.0" standalone="no"?>
<!DOCTYPE svg PUBLIC "-//W3C//DTD SVG 20010904//EN"
 "http://www.w3.org/TR/2001/REC-SVG-20010904/DTD/svg10.dtd">
<svg version="1.0" xmlns="http://www.w3.org/2000/svg"
 width="512.000000pt" height="512.000000pt" viewBox="0 0 512.000000 512.000000"
 preserveAspectRatio="xMidYMid meet">

<g transform="translate(0.000000,512.000000) scale(0.100000,-0.100000)"
fill="#000000" stroke="none">
<path d="M2528 5063 c-7 -77 -35 -122 -127 -208 -150 -140 -270 -264 -345
-358 -373 -467 -582 -1017 -637 -1672 -59 -704 197 -1380 730 -1927 74 -77
176 -173 227 -214 72 -59 93 -82 98 -107 5 -29 46 -369 61 -514 l7 -63 49 0
c31 0 51 5 53 12 2 7 13 84 25 170 11 86 35 228 52 315 l31 158 56 40 c75 54
282 261 365 365 354 445 537 972 537 1545 0 309 -55 597 -175 928 -150 416
-341 727 -646 1055 -183 196 -203 224 -280 377 -39 77 -72 141 -74 143 -1 1
-4 -19 -7 -45z m81 -2114 c13 -142 35 -627 51 -1064 17 -505 30 -916 30 -994
l0 -74 -24 22 c-32 30 -72 130 -103 261 -24 97 -26 127 -30 395 -8 493 19
1460 43 1579 11 51 22 8 33 -125z"/>
</g>
</svg>